<svg xmlns="http://www.w3.org/2000/svg" xmlns:xlink="http://www.w3.org/1999/xlink" width="461" zoomAndPan="magnify" viewBox="0 0 345.75 76.499998" height="102" preserveAspectRatio="xMidYMid meet" version="1.2"><defs><clipPath id="a9bb75a4dd"><path d="M 233.894531 16.101562 L 242.089844 16.101562 L 242.089844 28.261719 L 233.894531 28.261719 Z M 233.894531 16.101562 "/></clipPath></defs><g id="c22489a8b7"><g style="fill:#5c4d3f;fill-opacity:1;"><g transform="translate(13.444418, 51.472686)"><path style="stroke:none" d="M 1.265625 7.796875 L 3.796875 7.15625 L 3.796875 -19.8125 L 1.265625 -20.4375 L 1.265625 -21.078125 L 5.0625 -21.078125 C 6.71875 -21.078125 8.019531 -20.539062 8.96875 -19.46875 C 9.34375 -19.050781 9.65625 -18.53125 9.90625 -17.90625 C 10.269531 -18.632812 10.734375 -19.269531 11.296875 -19.8125 C 12.554688 -21.070312 14.128906 -21.703125 16.015625 -21.703125 C 17.671875 -21.703125 19.144531 -21.269531 20.4375 -20.40625 C 21.726562 -19.550781 22.753906 -18.285156 23.515625 -16.609375 C 24.273438 -14.941406 24.65625 -12.914062 24.65625 -10.53125 C 24.65625 -6.9375 23.816406 -4.175781 22.140625 -2.25 C 20.472656 -0.332031 18.21875 0.625 15.375 0.625 C 14.03125 0.625 12.851562 0.347656 11.84375 -0.203125 C 11.414062 -0.398438 10.976562 -0.679688 10.53125 -1.046875 L 10.53125 7.15625 L 13.0625 7.796875 L 13.0625 8.421875 L 1.265625 8.421875 Z M 13.703125 -0.625 C 14.898438 -0.625 15.828125 -1.328125 16.484375 -2.734375 C 17.148438 -4.140625 17.484375 -6.738281 17.484375 -10.53125 C 17.484375 -14.15625 17.179688 -16.675781 16.578125 -18.09375 C 15.972656 -19.519531 15.222656 -20.234375 14.328125 -20.234375 C 13.253906 -20.234375 12.300781 -19.671875 11.46875 -18.546875 C 11.101562 -18.066406 10.789062 -17.503906 10.53125 -16.859375 L 10.53125 -2.3125 C 10.925781 -1.925781 11.238281 -1.644531 11.46875 -1.46875 C 12.21875 -0.90625 12.960938 -0.625 13.703125 -0.625 Z M 13.703125 -0.625 "/></g></g><g style="fill:#5c4d3f;fill-opacity:1;"><g transform="translate(39.777773, 51.472686)"><path style="stroke:none" d="M 1.6875 -0.625 L 4.21875 -1.265625 L 4.21875 -19.8125 L 1.6875 -20.4375 L 1.6875 -21.078125 L 5.484375 -21.078125 C 7.140625 -21.078125 8.441406 -20.539062 9.390625 -19.46875 C 9.753906 -19.050781 10.066406 -18.53125 10.328125 -17.90625 C 10.742188 -18.53125 11.265625 -19.09375 11.890625 -19.59375 C 13.285156 -20.71875 14.859375 -21.28125 16.609375 -21.28125 C 18.097656 -21.28125 19.210938 -20.9375 19.953125 -20.25 C 20.703125 -19.5625 21.078125 -18.570312 21.078125 -17.28125 C 21.078125 -16.320312 20.785156 -15.550781 20.203125 -14.96875 C 19.628906 -14.394531 18.863281 -14.109375 17.90625 -14.109375 C 17.507812 -14.109375 17.117188 -14.140625 16.734375 -14.203125 L 16.21875 -14.328125 L 16.21875 -20.234375 C 14.789062 -20.234375 13.488281 -19.671875 12.3125 -18.546875 C 11.75 -17.984375 11.296875 -17.421875 10.953125 -16.859375 L 10.953125 -1.265625 L 13.484375 -0.625 L 13.484375 0 L 1.6875 0 Z M 1.6875 -0.625 "/></g></g><g style="fill:#5c4d3f;fill-opacity:1;"><g transform="translate(61.055124, 51.472686)"><path style="stroke:none" d="M 12.859375 0.625 C 9.367188 0.625 6.632812 -0.363281 4.65625 -2.34375 C 2.675781 -4.320312 1.6875 -7.050781 1.6875 -10.53125 C 1.6875 -14.019531 2.675781 -16.753906 4.65625 -18.734375 C 6.632812 -20.710938 9.367188 -21.703125 12.859375 -21.703125 C 16.335938 -21.703125 19.066406 -20.710938 21.046875 -18.734375 C 23.023438 -16.753906 24.015625 -14.019531 24.015625 -10.53125 C 24.015625 -7.050781 23.023438 -4.320312 21.046875 -2.34375 C 19.066406 -0.363281 16.335938 0.625 12.859375 0.625 Z M 12.859375 -0.203125 C 13.972656 -0.203125 14.914062 -0.988281 15.6875 -2.5625 C 16.46875 -4.144531 16.859375 -6.800781 16.859375 -10.53125 C 16.859375 -14.269531 16.46875 -16.925781 15.6875 -18.5 C 14.914062 -20.070312 13.972656 -20.859375 12.859375 -20.859375 C 11.734375 -20.859375 10.78125 -20.070312 10 -18.5 C 9.226562 -16.925781 8.84375 -14.269531 8.84375 -10.53125 C 8.84375 -6.800781 9.226562 -4.144531 10 -2.5625 C 10.78125 -0.988281 11.734375 -0.203125 12.859375 -0.203125 Z M 12.859375 -0.203125 "/></g></g><g style="fill:#5c4d3f;fill-opacity:1;"><g transform="translate(86.756479, 51.472686)"><path style="stroke:none" d="M 1.46875 -0.625 L 4 -1.265625 L 4 -19.171875 L 1.046875 -19.171875 L 1.046875 -20.234375 L 4 -20.234375 L 4 -22.328125 C 4 -23.816406 4.359375 -25.148438 5.078125 -26.328125 C 5.796875 -27.515625 6.820312 -28.441406 8.15625 -29.109375 C 9.488281 -29.785156 11.054688 -30.125 12.859375 -30.125 C 14.316406 -30.125 15.570312 -29.90625 16.625 -29.46875 C 17.675781 -29.039062 18.46875 -28.46875 19 -27.75 C 19.539062 -27.03125 19.8125 -26.28125 19.8125 -25.5 C 19.8125 -24.539062 19.519531 -23.769531 18.9375 -23.1875 C 18.363281 -22.613281 17.597656 -22.328125 16.640625 -22.328125 C 16.253906 -22.328125 15.863281 -22.359375 15.46875 -22.421875 L 14.953125 -22.546875 L 14.953125 -29.078125 L 14.578125 -29.15625 C 14.460938 -29.1875 14.332031 -29.210938 14.1875 -29.234375 C 14.050781 -29.265625 13.890625 -29.28125 13.703125 -29.28125 C 12.742188 -29.28125 12.007812 -28.78125 11.5 -27.78125 C 11 -26.789062 10.75 -24.972656 10.75 -22.328125 L 10.75 -20.234375 L 17.484375 -20.234375 L 17.484375 -19.171875 L 10.75 -19.171875 L 10.75 -1.265625 L 13.28125 -0.625 L 13.28125 0 L 1.46875 0 Z M 1.46875 -0.625 "/></g></g><g style="fill:#5c4d3f;fill-opacity:1;"><g transform="translate(104.663159, 51.472686)"><path style="stroke:none" d="M 12.859375 0.625 C 9.367188 0.625 6.632812 -0.363281 4.65625 -2.34375 C 2.675781 -4.320312 1.6875 -7.050781 1.6875 -10.53125 C 1.6875 -14.019531 2.675781 -16.753906 4.65625 -18.734375 C 6.632812 -20.710938 9.367188 -21.703125 12.859375 -21.703125 C 16.335938 -21.703125 19.066406 -20.710938 21.046875 -18.734375 C 23.023438 -16.753906 24.015625 -14.019531 24.015625 -10.53125 C 24.015625 -7.050781 23.023438 -4.320312 21.046875 -2.34375 C 19.066406 -0.363281 16.335938 0.625 12.859375 0.625 Z M 12.859375 -0.203125 C 13.972656 -0.203125 14.914062 -0.988281 15.6875 -2.5625 C 16.46875 -4.144531 16.859375 -6.800781 16.859375 -10.53125 C 16.859375 -14.269531 16.46875 -16.925781 15.6875 -18.5 C 14.914062 -20.070312 13.972656 -20.859375 12.859375 -20.859375 C 11.734375 -20.859375 10.78125 -20.070312 10 -18.5 C 9.226562 -16.925781 8.84375 -14.269531 8.84375 -10.53125 C 8.84375 -6.800781 9.226562 -4.144531 10 -2.5625 C 10.78125 -0.988281 11.734375 -0.203125 12.859375 -0.203125 Z M 12.859375 -0.203125 "/></g></g><g style="fill:#5c4d3f;fill-opacity:1;"><g transform="translate(130.364513, 51.472686)"><path style="stroke:none" d="M 11.796875 0.625 C 10.222656 0.625 8.8125 0.296875 7.5625 -0.359375 C 6.3125 -1.015625 5.332031 -1.875 4.625 -2.9375 C 3.925781 -4.007812 3.578125 -5.140625 3.578125 -6.328125 L 3.578125 -19.8125 L 1.046875 -20.4375 L 1.046875 -21.078125 L 6.53125 -21.078125 C 9.0625 -21.078125 10.328125 -19.8125 10.328125 -17.28125 L 10.328125 -6.328125 C 10.328125 -4.554688 10.640625 -3.195312 11.265625 -2.25 C 11.898438 -1.3125 12.640625 -0.84375 13.484375 -0.84375 C 14.523438 -0.84375 15.46875 -1.40625 16.3125 -2.53125 C 16.613281 -2.945312 16.9375 -3.507812 17.28125 -4.21875 L 17.28125 -19.8125 L 14.75 -20.4375 L 14.75 -21.078125 L 26.546875 -21.078125 L 26.546875 -20.4375 L 24.015625 -19.8125 L 24.015625 0.203125 L 23.59375 0.203125 C 21.539062 0.203125 19.984375 -0.351562 18.921875 -1.46875 C 18.441406 -1.976562 18.101562 -2.539062 17.90625 -3.15625 C 17.507812 -2.457031 17.046875 -1.828125 16.515625 -1.265625 C 15.253906 -0.00390625 13.679688 0.625 11.796875 0.625 Z M 11.796875 0.625 "/></g></g><g style="fill:#5c4d3f;fill-opacity:1;"><g transform="translate(157.751198, 51.472686)"><path style="stroke:none" d="M 1.6875 -0.625 L 4.21875 -1.265625 L 4.21875 -19.8125 L 1.6875 -20.4375 L 1.6875 -21.078125 L 5.484375 -21.078125 C 7.140625 -21.078125 8.441406 -20.539062 9.390625 -19.46875 C 9.753906 -19.050781 10.066406 -18.53125 10.328125 -17.90625 C 10.722656 -18.632812 11.1875 -19.269531 11.71875 -19.8125 C 12.976562 -21.070312 14.550781 -21.703125 16.4375 -21.703125 C 18.007812 -21.703125 19.421875 -21.367188 20.671875 -20.703125 C 21.921875 -20.046875 22.894531 -19.179688 23.59375 -18.109375 C 24.300781 -17.046875 24.65625 -15.925781 24.65625 -14.75 L 24.65625 -1.265625 L 27.1875 -0.625 L 27.1875 0 L 21.703125 0 C 19.171875 0 17.90625 -1.265625 17.90625 -3.796875 L 17.90625 -14.75 C 17.90625 -16.519531 17.585938 -17.875 16.953125 -18.8125 C 16.328125 -19.757812 15.59375 -20.234375 14.75 -20.234375 C 13.675781 -20.234375 12.722656 -19.671875 11.890625 -18.546875 C 11.515625 -18.066406 11.203125 -17.503906 10.953125 -16.859375 L 10.953125 -1.265625 L 13.484375 -0.625 L 13.484375 0 L 1.6875 0 Z M 1.6875 -0.625 "/></g></g><g style="fill:#5c4d3f;fill-opacity:1;"><g transform="translate(185.769883, 51.472686)"><path style="stroke:none" d="M 10.328125 0.625 C 8.671875 0.625 7.195312 0.195312 5.90625 -0.65625 C 4.613281 -1.507812 3.585938 -2.769531 2.828125 -4.4375 C 2.066406 -6.113281 1.6875 -8.144531 1.6875 -10.53125 C 1.6875 -14.125 2.519531 -16.882812 4.1875 -18.8125 C 5.863281 -20.738281 8.117188 -21.703125 10.953125 -21.703125 C 12.304688 -21.703125 13.488281 -21.421875 14.5 -20.859375 C 14.914062 -20.660156 15.347656 -20.378906 15.796875 -20.015625 L 15.796875 -28.234375 L 13.28125 -28.859375 L 13.28125 -29.5 L 18.75 -29.5 C 21.28125 -29.5 22.546875 -28.234375 22.546875 -25.703125 L 22.546875 -1.265625 L 25.078125 -0.625 L 25.078125 0 L 21.28125 0 C 19.59375 0 18.285156 -0.519531 17.359375 -1.5625 C 16.960938 -1.976562 16.65625 -2.507812 16.4375 -3.15625 C 16.070312 -2.457031 15.609375 -1.828125 15.046875 -1.265625 C 13.773438 -0.00390625 12.203125 0.625 10.328125 0.625 Z M 12.015625 -0.84375 C 13.046875 -0.84375 13.984375 -1.40625 14.828125 -2.53125 C 15.140625 -2.945312 15.460938 -3.507812 15.796875 -4.21875 L 15.796875 -18.75 C 15.492188 -19.0625 15.171875 -19.34375 14.828125 -19.59375 C 14.078125 -20.15625 13.347656 -20.4375 12.640625 -20.4375 C 11.429688 -20.4375 10.492188 -19.734375 9.828125 -18.328125 C 9.171875 -16.921875 8.84375 -14.320312 8.84375 -10.53125 C 8.84375 -6.90625 9.144531 -4.382812 9.75 -2.96875 C 10.351562 -1.550781 11.109375 -0.84375 12.015625 -0.84375 Z M 12.015625 -0.84375 "/></g></g><g style="fill:#5c4d3f;fill-opacity:1;"><g transform="translate(211.892567, 51.472686)"><path style="stroke:none" d="M 12.640625 0.625 C 10.785156 0.625 9.175781 0.289062 7.8125 -0.375 C 6.445312 -1.050781 5.398438 -1.976562 4.671875 -3.15625 C 3.941406 -4.34375 3.578125 -5.675781 3.578125 -7.15625 L 3.578125 -20.015625 L 0.625 -20.015625 L 0.625 -21.078125 L 3.578125 -21.078125 L 3.578125 -23.171875 C 3.578125 -25.703125 4.84375 -26.96875 7.375 -26.96875 L 10.328125 -26.96875 L 10.328125 -21.078125 L 16.21875 -21.078125 L 16.21875 -20.015625 L 10.328125 -20.015625 L 10.328125 -7.15625 C 10.328125 -4.570312 10.59375 -2.800781 11.125 -1.84375 C 11.65625 -0.894531 12.441406 -0.421875 13.484375 -0.421875 C 14.492188 -0.421875 15.378906 -0.910156 16.140625 -1.890625 C 16.898438 -2.878906 17.28125 -4.21875 17.28125 -5.90625 L 18.328125 -5.90625 C 18.328125 -3.820312 17.804688 -2.210938 16.765625 -1.078125 C 15.734375 0.0546875 14.359375 0.625 12.640625 0.625 Z M 12.640625 0.625 "/></g></g><g style="fill:#5c4d3f;fill-opacity:1;"><g transform="translate(230.852577, 51.472686)"><path style="stroke:none" d="M 1.6875 -0.625 L 4.21875 -1.265625 L 4.21875 -19.8125 L 1.6875 -20.4375 L 1.6875 -21.078125 L 7.15625 -21.078125 C 9.6875 -21.078125 10.953125 -19.8125 10.953125 -17.28125 L 10.953125 -1.265625 L 13.484375 -0.625 L 13.484375 0 L 1.6875 0 Z M 7.15625 -23.59375 C 6.3125 -23.59375 5.609375 -23.875 5.046875 -24.4375 C 4.484375 -25 4.203125 -25.703125 4.203125 -26.546875 C 4.203125 -27.390625 4.484375 -28.09375 5.046875 -28.65625 C 5.609375 -29.21875 6.3125 -29.5 7.15625 -29.5 C 8 -29.5 8.703125 -29.21875 9.265625 -28.65625 C 9.828125 -28.09375 10.109375 -27.390625 10.109375 -26.546875 C 10.109375 -25.703125 9.828125 -25 9.265625 -24.4375 C 8.703125 -23.875 8 -23.59375 7.15625 -23.59375 Z M 7.15625 -23.59375 "/></g></g><g style="fill:#5c4d3f;fill-opacity:1;"><g transform="translate(245.177925, 51.472686)"><path style="stroke:none" d="M 1.6875 -0.625 L 4.21875 -1.265625 L 4.21875 -19.8125 L 1.6875 -20.4375 L 1.6875 -21.078125 L 5.484375 -21.078125 C 7.140625 -21.078125 8.441406 -20.539062 9.390625 -19.46875 C 9.753906 -19.050781 10.066406 -18.53125 10.328125 -17.90625 C 10.742188 -18.695312 11.191406 -19.332031 11.671875 -19.8125 C 12.929688 -21.070312 14.378906 -21.703125 16.015625 -21.703125 C 17.640625 -21.703125 19.070312 -21.34375 20.3125 -20.625 C 21.550781 -19.90625 22.503906 -18.929688 23.171875 -17.703125 C 23.597656 -18.515625 24.050781 -19.175781 24.53125 -19.6875 C 25.820312 -21.03125 27.265625 -21.703125 28.859375 -21.703125 C 30.347656 -21.703125 31.691406 -21.390625 32.890625 -20.765625 C 34.085938 -20.148438 35.015625 -19.304688 35.671875 -18.234375 C 36.328125 -17.171875 36.65625 -16.007812 36.65625 -14.75 L 36.65625 -1.265625 L 39.1875 -0.625 L 39.1875 0 L 33.71875 0 C 31.1875 0 29.921875 -1.265625 29.921875 -3.796875 L 29.921875 -14.75 C 29.921875 -16.570312 29.640625 -17.941406 29.078125 -18.859375 C 28.515625 -19.773438 27.882812 -20.234375 27.1875 -20.234375 C 26.363281 -20.234375 25.53125 -19.671875 24.6875 -18.546875 C 24.351562 -18.003906 24.0625 -17.441406 23.8125 -16.859375 L 23.8125 -1.265625 L 26.34375 -0.625 L 26.34375 0 L 14.53125 0 L 14.53125 -0.625 L 17.0625 -1.265625 L 17.0625 -14.75 C 17.0625 -16.570312 16.78125 -17.941406 16.21875 -18.859375 C 15.65625 -19.773438 15.023438 -20.234375 14.328125 -20.234375 C 13.515625 -20.234375 12.6875 -19.671875 11.84375 -18.546875 C 11.5 -18.003906 11.203125 -17.441406 10.953125 -16.859375 L 10.953125 -1.265625 L 13.484375 -0.625 L 13.484375 0 L 1.6875 0 Z M 1.6875 -0.625 "/></g></g><g style="fill:#5c4d3f;fill-opacity:1;"><g transform="translate(285.204628, 51.472686)"><path style="stroke:none" d="M 13.0625 0.625 C 9.46875 0.625 6.671875 -0.363281 4.671875 -2.34375 C 2.679688 -4.320312 1.6875 -7.050781 1.6875 -10.53125 C 1.6875 -12.8125 2.117188 -14.789062 2.984375 -16.46875 C 3.859375 -18.15625 5.070312 -19.445312 6.625 -20.34375 C 8.1875 -21.25 9.984375 -21.703125 12.015625 -21.703125 C 14.035156 -21.703125 15.8125 -21.320312 17.34375 -20.5625 C 18.875 -19.800781 20.050781 -18.78125 20.875 -17.5 C 21.707031 -16.226562 22.125 -14.820312 22.125 -13.28125 C 22.125 -12.570312 22.050781 -11.96875 21.90625 -11.46875 L 21.703125 -10.75 C 20.492188 -10.488281 19.1875 -10.273438 17.78125 -10.109375 C 14.832031 -9.691406 11.851562 -9.484375 8.84375 -9.484375 C 8.84375 -6.222656 9.289062 -3.894531 10.1875 -2.5 C 11.09375 -1.113281 12.332031 -0.421875 13.90625 -0.421875 C 15 -0.421875 16.015625 -0.679688 16.953125 -1.203125 C 17.898438 -1.722656 18.644531 -2.410156 19.1875 -3.265625 C 19.738281 -4.117188 20.015625 -5 20.015625 -5.90625 L 21.078125 -5.90625 C 21.078125 -4.78125 20.738281 -3.710938 20.0625 -2.703125 C 19.382812 -1.691406 18.441406 -0.882812 17.234375 -0.28125 C 16.023438 0.320312 14.632812 0.625 13.0625 0.625 Z M 8.84375 -10.53125 C 10.644531 -10.53125 12.109375 -10.601562 13.234375 -10.75 C 13.710938 -10.769531 14.21875 -10.835938 14.75 -10.953125 C 14.78125 -11.097656 14.847656 -11.410156 14.953125 -11.890625 C 15.097656 -12.585938 15.171875 -13.328125 15.171875 -14.109375 C 15.171875 -16.441406 14.859375 -18.148438 14.234375 -19.234375 C 13.617188 -20.316406 12.878906 -20.859375 12.015625 -20.859375 C 9.898438 -20.859375 8.84375 -17.414062 8.84375 -10.53125 Z M 8.84375 -10.53125 "/></g></g><g style="fill:#5c4d3f;fill-opacity:1;"><g transform="translate(308.799322, 51.472686)"><path style="stroke:none" d="M 11.59375 0.625 C 9.84375 0.625 8.28125 0.25 6.90625 -0.5 C 6.238281 -0.863281 5.691406 -1.257812 5.265625 -1.6875 C 4.816406 -1.070312 4.328125 -0.59375 3.796875 -0.25 C 3.535156 -0.0820312 3.253906 0.0664062 2.953125 0.203125 L 1.890625 0.203125 L 1.890625 -6.953125 L 3.578125 -6.953125 C 3.941406 -5.773438 4.476562 -4.679688 5.1875 -3.671875 C 6.675781 -1.503906 8.53125 -0.421875 10.75 -0.421875 C 11.925781 -0.421875 12.816406 -0.707031 13.421875 -1.28125 C 14.023438 -1.863281 14.328125 -2.703125 14.328125 -3.796875 C 14.328125 -4.722656 13.910156 -5.5 13.078125 -6.125 C 12.253906 -6.757812 10.957031 -7.539062 9.1875 -8.46875 C 7.664062 -9.226562 6.4375 -9.910156 5.5 -10.515625 C 4.5625 -11.117188 3.757812 -11.875 3.09375 -12.78125 C 2.4375 -13.695312 2.109375 -14.773438 2.109375 -16.015625 C 2.109375 -17.703125 2.832031 -19.070312 4.28125 -20.125 C 5.726562 -21.175781 7.953125 -21.703125 10.953125 -21.703125 C 12.441406 -21.703125 13.820312 -21.304688 15.09375 -20.515625 C 15.707031 -20.148438 16.238281 -19.773438 16.6875 -19.390625 C 17.050781 -19.890625 17.539062 -20.363281 18.15625 -20.8125 C 18.632812 -21.09375 18.914062 -21.25 19 -21.28125 L 20.0625 -21.28125 L 20.0625 -14.109375 L 18.375 -14.109375 C 17.945312 -15.316406 17.425781 -16.398438 16.8125 -17.359375 C 15.40625 -19.554688 13.734375 -20.65625 11.796875 -20.65625 C 11.035156 -20.65625 10.390625 -20.375 9.859375 -19.8125 C 9.328125 -19.25 9.0625 -18.546875 9.0625 -17.703125 C 9.0625 -16.628906 9.507812 -15.734375 10.40625 -15.015625 C 11.300781 -14.304688 12.664062 -13.488281 14.5 -12.5625 C 15.988281 -11.800781 17.175781 -11.128906 18.0625 -10.546875 C 18.945312 -9.972656 19.703125 -9.265625 20.328125 -8.421875 C 20.960938 -7.578125 21.28125 -6.597656 21.28125 -5.484375 C 21.28125 -1.410156 18.050781 0.625 11.59375 0.625 Z M 11.59375 0.625 "/></g></g><g clip-rule="nonzero" clip-path="url(#a9bb75a4dd)"><path style=" stroke:none;fill-rule:nonzero;fill:#a67c52;fill-opacity:1;" d="M 242.371094 31.003906 L 241.738281 27.859375 L 240.257812 27.859375 L 242.371094 21.929688 C 240.539062 20.425781 238.976562 18.636719 238.976562 16.101562 L 238.339844 16.101562 L 238.339844 23.078125 C 238.480469 23.148438 238.550781 23.253906 238.550781 23.398438 C 238.550781 23.5 238.507812 23.589844 238.425781 23.660156 C 238.34375 23.734375 238.242188 23.769531 238.125 23.769531 C 238.007812 23.769531 237.90625 23.734375 237.824219 23.660156 C 237.742188 23.589844 237.699219 23.5 237.699219 23.398438 C 237.699219 23.253906 237.769531 23.148438 237.914062 23.078125 L 237.914062 16.101562 L 237.273438 16.101562 C 237.273438 18.769531 235.695312 20.527344 233.878906 22.046875 L 235.992188 27.992188 L 234.507812 27.992188 L 233.867188 31.003906 Z M 242.371094 31.003906 "/></g></g></svg>